<?xml version="1.0" encoding="UTF-8"?>
<svg width="125px" height="32px" viewBox="0 0 125 32" version="1.1" xmlns="http://www.w3.org/2000/svg" xmlns:xlink="http://www.w3.org/1999/xlink">
    <!-- Generator: Sketch 55.2 (78181) - https://sketchapp.com -->
    <title>Learn Handball logo</title>
    <desc>Created with Sketch.</desc>
    <defs>
        <linearGradient x1="-14.6951641%" y1="70.7966975%" x2="71.9770557%" y2="18.5094497%" id="linearGradient-1">
            <stop stop-color="#A6216A" offset="0%"></stop>
            <stop stop-color="#EA214C" offset="33.33%"></stop>
            <stop stop-color="#F06A44" offset="66.66%"></stop>
            <stop stop-color="#F7D969" offset="100%"></stop>
        </linearGradient>
        <linearGradient x1="24.2231124%" y1="55.6661205%" x2="79.3343981%" y2="34.7938311%" id="linearGradient-2">
            <stop stop-color="#A6216A" offset="0%"></stop>
            <stop stop-color="#D52155" offset="41.21%"></stop>
            <stop stop-color="#EB2A4C" offset="59.94%"></stop>
            <stop stop-color="#F06A44" offset="95.15%"></stop>
        </linearGradient>
    </defs>
    <g id="Symbols" stroke="none" stroke-width="1" fill="none" fill-rule="evenodd">
        <g id="Element-/-Logo-/-Vanlig" fill-rule="nonzero">
            <g id="Learn-Handball-logo">
                <path d="M36.9721689,15.9515152 C36.684261,15.5636364 36.4923225,15.1272727 36.2763916,14.6909091 C36.1324376,14.4727273 35.9165067,14.3515152 35.7005758,14.230303 C35.6285988,14.1818182 35.5566219,14.1333333 35.4606526,14.1090909 C35.3646833,14.0606061 35.268714,14.0121212 35.1727447,13.9636364 C35.1007678,13.9393939 35.0047985,13.9151515 34.9568138,13.8424242 C34.8848369,13.7454545 34.8368522,13.6 34.7888676,13.4787879 C34.7648752,13.4060606 34.7168906,13.3090909 34.6928983,13.2363636 C34.6449136,13.1393939 34.596929,13.0666667 34.5729367,12.969697 C34.3330134,12.4606061 33.9971209,12 33.7332054,11.5393939 C33.5412668,11.2727273 33.3733205,10.9818182 33.2293666,10.6909091 C33.1333973,10.5939394 33.0134357,10.4727273 32.9414587,10.3515152 C32.7495202,10.0121212 32.43762,9.79393939 32.2216891,9.47878788 C31.9817658,9.21212121 31.6698656,9.04242424 31.3819578,8.84848485 C30.7341651,8.43636364 30.0383877,8.12121212 29.4145873,7.66060606 C29.1746641,7.46666667 28.9107486,7.2969697 28.6228407,7.2 C28.3349328,7.1030303 28.1429942,6.90909091 27.9990403,6.66666667 C27.8071017,6.32727273 27.5191939,6.06060606 27.1833013,5.89090909 C26.7994242,5.67272727 26.3915547,5.6 25.9596929,5.6 C25.5758157,5.6 25.2159309,5.6 24.8080614,5.6 C25.0959693,4.82424242 25.4318618,4.0969697 25.7197697,3.34545455 C25.8397313,3.00606061 25.8637236,2.66666667 25.7677543,2.32727273 C25.7197697,2.10909091 25.6477927,1.89090909 25.5758157,1.6969697 C25.2879079,1.18787879 24.8320537,0.96969697 24.256238,0.921212121 C23.6084453,0.872727273 23.0566219,1.09090909 22.5767754,1.52727273 C22.3608445,1.6969697 22.1928983,1.91515152 22.096929,2.15757576 C22.0489443,2.27878788 21.9289827,2.27878788 21.8330134,2.32727273 C21.4731286,2.61818182 21.4011516,3.03030303 21.4011516,3.46666667 C21.4011516,3.53939394 21.425144,3.61212121 21.4971209,3.66060606 C21.6410749,3.78181818 21.6170825,3.92727273 21.5690979,4.07272727 C21.425144,4.48484848 21.3051823,4.92121212 21.2571977,5.35757576 C21.2332054,5.6 21.1132438,5.6969697 20.8973129,5.6969697 C20.4894434,5.72121212 19.6497121,5.86666667 19.2658349,6.03636364 C18.7380038,6.35151515 17.8502879,6.23030303 17.6823417,6.15757576 C16.6746641,5.45454545 15.6669866,4.77575758 14.731286,4 C14.5873321,3.87878788 14.4913628,3.70909091 14.4673704,3.51515152 C14.4433781,3.17575758 14.4193858,2.81212121 14.3953935,2.47272727 C14.3953935,2.10909091 14.3474088,1.6969697 14.1314779,1.38181818 C13.8675624,0.993939394 13.4836852,0.654545455 13.0758157,0.412121212 C12.8119002,0.436363636 12.571977,0.242424242 12.3320537,0.218181818 C11.9241843,0.121212121 11.5403071,0.145454545 11.1324376,0.266666667 C10.7245681,0.387878788 10.4846449,0.703030303 10.2447217,0.993939394 C10.0287908,1.33333333 9.88483685,1.72121212 9.88483685,2.13333333 C9.90882917,3.34545455 10.8445298,4.19393939 12.0441459,4.14545455 C12.3080614,4.12121212 12.5239923,4.21818182 12.6439539,4.43636364 C12.8119002,4.72727273 13.0758157,4.8969697 13.3877159,5.01818182 C13.5556622,5.09090909 13.6756238,5.16363636 13.7715931,5.30909091 C13.987524,5.67272727 14.2274472,5.98787879 14.3714012,6.4 C14.4193858,6.56969697 14.4913628,6.71515152 14.5633397,6.86060606 C14.9712092,6.93333333 15.331094,7.15151515 15.5950096,7.44242424 C15.7629559,7.66060606 15.8829175,7.9030303 15.9309021,8.12121212 C15.9309021,8.14545455 15.9548944,8.19393939 15.9548944,8.21818182 C15.9788868,8.31515152 16.0028791,8.43636364 16.0028791,8.53333333 C16.0508637,8.58181818 16.1228407,8.60606061 16.1948177,8.65454545 C16.1948177,8.63030303 16.1948177,8.60606061 16.1948177,8.60606061 C16.1948177,8.58181818 16.1948177,8.55757576 16.1948177,8.53333333 C16.1948177,8.48484848 16.1708253,8.43636364 16.1948177,8.38787879 C16.21881,8.29090909 16.3147793,8.21818182 16.4107486,8.21818182 C16.4347409,8.21818182 16.4587332,8.21818182 16.4827255,8.21818182 C16.4827255,8.21818182 16.4827255,8.21818182 16.4827255,8.21818182 C16.5307102,8.21818182 16.4827255,8.07272727 16.4827255,7.97575758 C16.4827255,7.80606061 16.5547025,7.73333333 16.7226488,7.70909091 C16.7466411,7.70909091 16.7466411,7.70909091 16.7706334,7.70909091 C16.8666027,7.70909091 16.962572,7.75757576 17.0345489,7.83030303 C17.0345489,7.83030303 17.0585413,7.83030303 17.0585413,7.83030303 C17.1065259,7.83030303 17.2264875,7.80606061 17.3224568,7.80606061 C17.3704415,7.80606061 17.4184261,7.80606061 17.4664107,7.83030303 C17.56238,7.87878788 17.6103647,7.95151515 17.6583493,8.04848485 C17.6823417,8.0969697 17.6583493,8.14545455 17.6583493,8.19393939 C17.6583493,8.21818182 17.6823417,8.31515152 17.706334,8.31515152 C17.7303263,8.31515152 17.7543186,8.33939394 17.7783109,8.33939394 C17.8742802,8.41212121 17.8982726,8.53333333 17.8982726,8.63030303 L17.8982726,8.67878788 C17.8982726,8.8 17.8982726,8.8 18.0182342,8.92121212 C18.1861804,9.09090909 18.1142035,9.18787879 17.9942418,9.33333333 C17.8262956,9.5030303 17.7783109,9.64848485 17.8502879,9.84242424 C17.8982726,9.93939394 17.9462572,10.0121212 18.0182342,10.1090909 C18.0422265,10.1575758 18.0662188,10.1818182 18.1142035,10.230303 C18.3301344,10.5454545 18.4021113,10.9818182 18.450096,11.3939394 C18.4740883,11.5151515 18.4740883,11.6363636 18.4021113,11.7575758 C18.2821497,12 18.1142035,12.1454545 17.8262956,12.2181818 C17.7303263,12.2424242 17.6823417,12.2909091 17.6103647,12.3636364 C17.56238,12.4121212 17.4904031,12.4848485 17.3704415,12.5333333 C17.2264875,12.5818182 17.1065259,12.7030303 16.9865643,12.8484848 C16.9385797,12.8969697 16.890595,12.969697 16.8426104,13.0181818 C16.4347409,13.4060606 16.1228407,13.7454545 15.9309021,14.2060606 L15.9069098,14.2787879 C15.7389635,14.7151515 15.5710173,15.1272727 15.4270633,15.5878788 C15.331094,15.9030303 15.2111324,16.2181818 15.1151631,16.5333333 L15.0431862,16.7757576 C14.9952015,16.9212121 14.9232246,17.0666667 14.8752399,17.2121212 C14.8272553,17.3333333 14.7792706,17.4787879 14.731286,17.6 C14.7072937,17.6969697 14.659309,17.7939394 14.6353167,17.8909091 C14.5873321,18.0363636 14.5633397,18.1818182 14.4913628,18.3272727 C14.4193858,18.4727273 14.3474088,18.5939394 14.2514395,18.7151515 C14.1794626,18.8121212 14.1314779,18.9090909 14.059501,19.0060606 C13.987524,19.1515152 13.915547,19.3212121 13.8675624,19.4909091 C13.8195777,19.5878788 13.7955854,19.7090909 13.7476008,19.8060606 C13.6756238,19.9757576 13.5556622,20.1454545 13.4357006,20.3151515 L13.4117083,20.3636364 C13.3637236,20.4363636 13.315739,20.4606061 13.2677543,20.4848485 C13.243762,20.5090909 13.2197697,20.5333333 13.1957774,20.5575758 C13.4357006,20.5575758 13.7955854,20.5333333 13.9635317,20.4606061 C14.2274472,20.3636364 14.8272553,20.0969697 15.4510557,19.7333333 C15.475048,20 15.4990403,20.2909091 15.547025,20.5575758 C15.5710173,21.1878788 15.9069098,22.6666667 16.074856,22.8363636 C16.0988484,23.1030303 16.0508637,23.1757576 16.0028791,23.4666667 C15.9788868,23.6606061 15.9069098,23.9030303 15.7869482,23.7818182 C15.4990403,23.5393939 14.8512476,23.030303 14.7552783,22.6181818 C14.7072937,22.3030303 13.8195777,20.6787879 12.9318618,21.3090909 C12.8598848,21.430303 12.7879079,21.5515152 12.7159309,21.6727273 C12.6679463,21.7454545 12.6439539,21.7939394 12.5959693,21.8666667 C12.5239923,21.9878788 12.4760077,22.1090909 12.4040307,22.230303 C12.3320537,22.4 12.2360845,22.569697 12.1401152,22.7393939 C12.0201536,22.8848485 11.9241843,23.0545455 11.8042226,23.2 C11.5882917,23.4909091 11.3723608,23.7818182 11.1804223,24.1212121 C11.1324376,24.2181818 11.084453,24.3151515 11.0364683,24.4121212 C10.9884837,24.5333333 10.9165067,24.6545455 10.8685221,24.7757576 C10.7965451,24.8969697 10.7005758,25.0424242 10.6285988,25.1636364 C10.5566219,25.2848485 10.4606526,25.430303 10.3886756,25.5515152 C10.3646833,25.6 10.3166987,25.6727273 10.2927063,25.7212121 C10.268714,25.7454545 10.2447217,25.7939394 10.2447217,25.8181818 C10.340691,25.9151515 10.5086372,25.9636364 10.8205374,25.8181818 C11.1324376,25.6969697 11.9241843,24.8484848 12.3080614,24.969697 C12.6199616,25.0424242 12.9318618,24.7515152 12.9798464,24.7272727 C13.2677543,24.5575758 13.3637236,24.4121212 13.6276392,24.5090909 C14.2034549,24.7272727 14.9472169,25.6727273 15.403071,26.4484848 C15.547025,26.6909091 15.7869482,27.2727273 15.8349328,27.369697 C16.0028791,27.7333333 16.2667946,28.2666667 17.0345489,28.2666667 C17.4184261,28.2666667 17.8982726,27.9272727 18.0902111,27.5636364 C18.378119,26.9818182 18.5220729,26.6181818 18.8099808,26.0363636 C19.0019194,25.6242424 19.1458733,25.1636364 19.3378119,24.7272727 C19.5297505,24.3151515 19.5057582,23.830303 19.865643,23.4666667 C20.1535509,23.5151515 20.3454894,22.6666667 20.4654511,22.1575758 C20.7053743,21.3333333 20.8493282,19.7575758 21.1852207,18.7393939 L21.1852207,18.7393939 C21.4491363,18.3272727 21.6890595,17.5757576 21.6890595,17.0909091 C21.6890595,16.3878788 23.7044146,13.1636364 24.2802303,12.9212121 C24.5441459,12.7757576 24.7360845,12.3636364 24.7840691,12.2424242 C24.8320537,11.9757576 24.9040307,11.7575758 25.1439539,11.5878788 C25.6957774,11.1757576 26.0316699,10.6181818 26.1996161,9.96363636 C26.2476008,9.76969697 26.3195777,9.76969697 26.4635317,9.84242424 C26.6554702,9.93939394 26.8474088,9.98787879 27.0393474,10.0848485 C27.3272553,10.2060606 27.5911708,10.2545455 27.8790787,10.1333333 C27.9990403,10.0848485 28.1190019,10.1333333 28.2149712,10.1818182 C28.5988484,10.3757576 29.0067179,10.5454545 29.4385797,10.6424242 C29.6545106,10.6909091 29.7984645,10.7878788 29.9424184,10.9333333 C30.3262956,11.3212121 30.7341651,11.6848485 31.1900192,12 C31.9097889,12.5090909 32.5815739,13.0424242 32.9894434,13.8424242 C33.0614203,13.9878788 33.1333973,14.1090909 33.2293666,14.230303 C33.3013436,14.3757576 33.4452975,14.4727273 33.4932821,14.6424242 C33.6132438,14.9575758 33.5892514,15.2969697 33.5892514,15.6121212 C33.5892514,15.8787879 33.6612284,16.0969697 33.9011516,16.2666667 C34.1890595,16.4848485 34.3570058,16.7757576 34.3570058,17.1393939 C34.3570058,17.2606061 34.3809981,17.3818182 34.5009597,17.4545455 C34.7648752,17.5272727 34.8848369,17.3818182 34.9808061,17.1636364 C35.0767754,16.9212121 35.1487524,16.8969697 35.3646833,17.0909091 C35.5086372,17.2121212 35.6285988,17.3333333 35.7485605,17.4787879 C35.9165067,17.5757576 36.012476,17.769697 36.1324376,17.8909091 C36.2523992,17.9878788 36.3723608,17.9636364 36.4923225,17.8666667 C36.6122841,17.769697 36.6362764,17.6484848 36.5882917,17.5272727 C36.4683301,17.2606061 36.5403071,17.3818182 36.6122841,17.3090909 C36.756238,17.1636364 36.684261,16.969697 36.6362764,16.7757576 C36.5163148,16.3393939 36.3483685,16.3393939 36.2044146,15.9515152 C36.1804223,15.9030303 36.1804223,15.830303 36.2763916,15.8060606 C36.4683301,15.9515152 36.4683301,16.2424242 36.6602687,16.4121212 C36.8042226,16.5333333 36.9481766,16.5818182 37.0921305,16.4121212 C37.0201536,16.169697 37.0441459,16.0727273 36.9721689,15.9515152 Z" id="Path" fill="url(#linearGradient-1)"></path>
                <path d="M18.3541267,11.3212121 C18.306142,10.9090909 18.2341651,10.4727273 18.0182342,10.1575758 C17.9942418,10.1090909 17.9702495,10.0848485 17.9222649,10.0363636 C17.8502879,9.96363636 17.8023033,9.86666667 17.7543186,9.76969697 C17.6583493,9.55151515 17.7303263,9.43030303 17.8982726,9.26060606 C18.0182342,9.13939394 18.0902111,9.04242424 17.9222649,8.84848485 C17.8023033,8.72727273 17.8023033,8.72727273 17.8023033,8.60606061 L17.8023033,8.55757576 C17.8023033,8.46060606 17.7783109,8.33939394 17.6823417,8.26666667 C17.6583493,8.24242424 17.634357,8.24242424 17.6103647,8.24242424 C17.5863724,8.24242424 17.56238,8.16969697 17.56238,8.12121212 C17.56238,8.07272727 17.56238,8.02424242 17.56238,7.97575758 C17.5383877,7.87878788 17.4664107,7.80606061 17.3704415,7.75757576 C17.2504798,7.70909091 16.962572,7.78181818 16.9385797,7.75757576 C16.8666027,7.66060606 16.7706334,7.63636364 16.6266795,7.63636364 C16.4587332,7.66060606 16.3867562,7.73333333 16.3867562,7.9030303 C16.3867562,8 16.4347409,8.14545455 16.3867562,8.14545455 C16.2667946,8.12121212 16.146833,8.16969697 16.0988484,8.29090909 C16.074856,8.33939394 16.0988484,8.38787879 16.0988484,8.43636364 C16.0988484,8.46060606 16.0988484,8.48484848 16.0988484,8.50909091 C16.0988484,8.53333333 16.0988484,8.58181818 16.074856,8.60606061 C16.074856,8.65454545 16.0508637,8.67878788 16.0508637,8.72727273 C16.0508637,8.92121212 16.146833,9.26060606 16.2907869,9.43030303 C16.3627639,9.5030303 16.4347409,9.57575758 16.5307102,9.62424242 C16.6266795,9.6969697 16.7226488,9.76969697 16.7706334,9.84242424 C16.890595,10.0121212 16.9145873,10.4 16.9145873,10.4969697 C16.9145873,10.5454545 16.9145873,10.6909091 16.9145873,10.7878788 C16.8666027,10.7636364 16.818618,10.7393939 16.7466411,10.7393939 C16.6506718,10.6909091 16.5547025,10.6424242 16.4347409,10.6424242 C16.3387716,10.6424242 16.2428023,10.6666667 16.146833,10.6909091 C16.0268714,10.7151515 15.9069098,10.7636364 15.8349328,10.7393939 C15.8109405,10.7393939 15.7869482,10.7151515 15.7629559,10.7151515 C15.7149712,10.6909091 15.6669866,10.6666667 15.5950096,10.6909091 C15.547025,10.6909091 15.4990403,10.7151515 15.4510557,10.7151515 C15.403071,10.7151515 15.3550864,10.7393939 15.3071017,10.7393939 C15.1631478,10.7393939 15.0431862,10.7393939 14.8992322,10.7151515 C14.8752399,10.7151515 14.8272553,10.7151515 14.803263,10.7151515 C14.803263,10.6909091 14.8272553,10.6909091 14.8272553,10.6666667 C14.8512476,10.6424242 14.8512476,10.6424242 14.8512476,10.6181818 C14.9472169,10.5454545 15.0191939,10.4484848 15.0911708,10.3272727 C15.1391555,10.2545455 15.2111324,10.1818182 15.2591171,10.1090909 C15.331094,10.0121212 15.4270633,9.91515152 15.4990403,9.81818182 C15.6190019,9.6 15.6429942,9.30909091 15.6669866,9.09090909 C15.6669866,8.96969697 15.7149712,8.94545455 15.7629559,8.8969697 C15.7869482,8.84848485 15.8349328,8.82424242 15.8589251,8.75151515 C15.9548944,8.58181818 15.9069098,8.31515152 15.8589251,8.12121212 C15.8589251,8.0969697 15.8349328,8.04848485 15.8349328,8.02424242 C15.7869482,7.80606061 15.6669866,7.53939394 15.4990403,7.34545455 C15.1631478,6.93333333 14.5633397,6.69090909 13.9635317,6.71515152 C13.5796545,6.73939394 12.8598848,6.86060606 12.4520154,7.34545455 C12.2840691,7.53939394 12.2840691,7.73333333 12.2600768,7.92727273 C12.2600768,7.97575758 12.2600768,8.02424242 12.2600768,8.07272727 C12.2600768,8.14545455 12.2360845,8.24242424 12.2360845,8.31515152 C12.2120921,8.50909091 12.1880998,8.7030303 12.1880998,8.8969697 C12.1880998,9.18787879 12.2600768,9.47878788 12.3320537,9.76969697 C12.3560461,9.89090909 12.428023,9.93939394 12.5,10.0121212 C12.5479846,10.0606061 12.5959693,10.1090909 12.6199616,10.1575758 C12.6439539,10.1818182 12.6439539,10.2060606 12.6439539,10.2060606 C12.6439539,10.2060606 12.6439539,10.2060606 12.6439539,10.230303 C12.6439539,10.230303 12.6439539,10.2545455 12.6439539,10.2787879 L12.6439539,10.3030303 C12.6439539,10.3515152 12.6439539,10.3757576 12.6199616,10.4242424 C12.6199616,10.4484848 12.6199616,10.4727273 12.5959693,10.5212121 C12.5959693,10.5454545 12.5959693,10.5939394 12.5959693,10.6424242 C12.5959693,10.7878788 12.571977,10.9818182 12.5,11.0545455 C12.4520154,11.1030303 12.3560461,11.0787879 12.2600768,11.0545455 C12.2360845,11.0545455 12.2120921,11.0545455 12.1880998,11.0545455 C12.0681382,11.0545455 11.9721689,11.0545455 11.828215,11.0787879 C11.7082534,11.1030303 11.5642994,11.1515152 11.4443378,11.1757576 C11.3723608,11.2 11.3003839,11.2242424 11.2284069,11.2484848 C11.2044146,11.2484848 11.1564299,11.2727273 11.1324376,11.2727273 C11.012476,11.2969697 10.9165067,11.3212121 10.7965451,11.4181818 C10.7245681,11.4666667 10.6765835,11.5151515 10.6046065,11.5636364 C10.4846449,11.6363636 10.3886756,11.7333333 10.2927063,11.8545455 C10.1487524,12.0242424 10.0047985,12.1212121 9.83685221,12.0969697 C9.81285988,12.0969697 9.78886756,12.0969697 9.76487524,12.0727273 C9.7168906,12.0484848 9.64491363,12.0484848 9.54894434,12.0969697 C9.50095969,12.1212121 9.50095969,12.1454545 9.47696737,12.169697 C9.45297505,12.1939394 9.45297505,12.1939394 9.4049904,12.2181818 C9.35700576,12.2424242 9.28502879,12.2424242 9.23704415,12.2424242 C9.16506718,12.2424242 9.06909789,12.2666667 8.9731286,12.2909091 C8.94913628,12.2909091 8.94913628,12.3151515 8.92514395,12.3151515 C8.90115163,12.3151515 8.85316699,12.3393939 8.82917466,12.3393939 C8.78119002,12.3393939 8.68522073,12.2666667 8.42130518,11.8787879 C8.30134357,11.7090909 8.15738964,11.5151515 7.98944338,11.2969697 C7.94145873,11.2484848 7.89347409,11.2 7.84548944,11.1272727 C7.72552783,10.9818182 7.5815739,10.8363636 7.50959693,10.6909091 C7.41362764,10.4484848 7.24568138,10.230303 7.10172745,10.0121212 C7.00575816,9.86666667 6.88579655,9.72121212 6.81381958,9.57575758 C6.71785029,9.40606061 6.66986564,9.26060606 6.64587332,9.01818182 C6.64587332,8.94545455 6.621881,8.8969697 6.621881,8.82424242 C6.621881,8.7030303 6.59788868,8.60606061 6.57389635,8.48484848 C6.54990403,8.43636364 6.54990403,8.41212121 6.52591171,8.36363636 C6.50191939,8.31515152 6.47792706,8.26666667 6.47792706,8.21818182 C6.47792706,8.16969697 6.45393474,8.14545455 6.45393474,8.0969697 C6.42994242,8.02424242 6.42994242,7.92727273 6.38195777,7.85454545 C6.30998081,7.66060606 6.02207294,7.36969697 5.80614203,7.36969697 C5.80614203,7.36969697 5.80614203,7.36969697 5.80614203,7.36969697 C5.75815739,7.36969697 5.71017274,7.39393939 5.68618042,7.41818182 C5.68618042,7.41818182 5.6621881,7.44242424 5.6621881,7.44242424 C5.63819578,7.44242424 5.59021113,7.39393939 5.56621881,7.39393939 C5.54222649,7.36969697 5.51823417,7.36969697 5.51823417,7.36969697 C5.2303263,7.22424242 4.99040307,7.17575758 4.72648752,7.24848485 C4.22264875,7.36969697 3.83877159,7.63636364 3.62284069,8.14545455 C3.43090211,8.63030303 3.50287908,9.26060606 3.86276392,9.67272727 C4.24664107,10.1090909 4.79846449,10.2787879 5.30230326,10.1333333 C5.4462572,10.0848485 5.59021113,10.0363636 5.73416507,9.93939394 C5.75815739,9.93939394 5.75815739,9.91515152 5.78214971,9.89090909 C5.78214971,9.89090909 5.80614203,9.86666667 5.83013436,9.86666667 C5.85412668,9.89090909 5.878119,9.91515152 5.90211132,9.93939394 C5.92610365,9.96363636 5.95009597,9.98787879 5.95009597,9.98787879 C5.97408829,10.0121212 5.99808061,10.0363636 6.04606526,10.0363636 C6.0940499,10.0606061 6.11804223,10.0848485 6.14203455,10.1090909 C6.19001919,10.1575758 6.21401152,10.2545455 6.21401152,10.3515152 C6.21401152,10.4 6.23800384,10.4484848 6.23800384,10.4969697 C6.28598848,10.6424242 6.33397313,10.7393939 6.38195777,10.8606061 C6.50191939,11.0787879 6.59788868,11.2727273 6.66986564,11.4909091 C6.71785029,11.5878788 6.74184261,11.7090909 6.78982726,11.8060606 C6.95777351,12.2181818 7.10172745,12.6060606 7.36564299,12.969697 C7.41362764,13.0424242 7.48560461,13.0909091 7.53358925,13.1636364 C7.65355086,13.3090909 7.77351248,13.4545455 7.86948177,13.6484848 C7.98944338,13.8909091 8.18138196,13.9151515 8.42130518,13.9393939 C8.54126679,13.9393939 8.66122841,13.9393939 8.78119002,13.9151515 C8.94913628,13.8909091 9.11708253,13.8666667 9.23704415,13.9151515 C9.28502879,13.9393939 9.35700576,13.9878788 9.4049904,14.0121212 C9.45297505,14.0363636 9.47696737,14.0606061 9.52495202,14.0848485 C9.57293666,14.1090909 9.62092131,14.1333333 9.64491363,14.1575758 C9.7168906,14.2060606 9.81285988,14.2545455 9.88483685,14.3030303 L9.9328215,14.3272727 C10.0287908,14.3757576 10.0527831,14.4 10.0527831,14.4727273 C10.0527831,14.4969697 10.0527831,14.5212121 10.0527831,14.5454545 C10.0527831,14.569697 10.0527831,14.569697 10.0527831,14.5939394 C10.0287908,14.7151515 10.0287908,14.8363636 10.0287908,14.9333333 C10.0287908,15.030303 10.0287908,15.1030303 10.0527831,15.2 C10.0767754,15.3212121 10.0767754,15.4181818 10.0767754,15.5393939 C10.0767754,15.5878788 10.0767754,15.6121212 10.0767754,15.6606061 C10.0767754,15.7333333 10.0767754,15.8060606 10.0527831,15.8787879 C9.98080614,16.0727273 9.95681382,16.1212121 9.95681382,16.1212121 C9.9328215,16.1454545 9.83685221,16.1454545 9.78886756,16.1212121 C9.74088292,16.1212121 9.69289827,16.1212121 9.64491363,16.1212121 C9.54894434,16.1454545 9.42898273,16.169697 9.35700576,16.2181818 C9.23704415,16.2909091 9.14107486,16.4121212 9.04510557,16.5333333 C8.9731286,16.630303 8.90115163,16.7030303 8.82917466,16.7757576 C8.80518234,16.8 8.7571977,16.8242424 8.73320537,16.8484848 C8.68522073,16.8727273 8.61324376,16.8969697 8.58925144,16.9454545 C8.56525912,16.969697 8.54126679,17.0181818 8.51727447,17.0424242 C8.49328215,17.0666667 8.49328215,17.0909091 8.46928983,17.1151515 C8.37332054,17.2121212 8.20537428,17.2848485 8.06142035,17.3575758 C7.98944338,17.3818182 7.94145873,17.4060606 7.86948177,17.430303 C7.62955854,17.5515152 7.36564299,17.6484848 7.12571977,17.6 C7.02975048,17.5757576 6.90978887,17.5515152 6.81381958,17.5272727 C6.64587332,17.4787879 6.50191939,17.430303 6.30998081,17.4060606 C6.07005758,17.3818182 5.80614203,17.4545455 5.56621881,17.5030303 C5.51823417,17.5030303 5.47024952,17.5272727 5.42226488,17.5272727 L5.27831094,17.5515152 C5.06238004,17.6 4.82245681,17.6484848 4.60652591,17.7454545 C4.31861804,17.8666667 4.03071017,17.9878788 3.76679463,18.1090909 L3.55086372,18.2060606 C3.43090211,18.2545455 3.28694818,18.3030303 3.0950096,18.3515152 L3.04702495,18.3515152 C3.02303263,18.3515152 2.97504798,18.3757576 2.95105566,18.3757576 L2.92706334,18.3030303 L2.83109405,18.3030303 C2.7831094,18.3030303 2.73512476,18.3030303 2.66314779,18.3272727 L2.5671785,18.3515152 C2.51919386,18.3757576 2.49520154,18.3757576 2.42322457,18.3272727 C2.37523992,18.3030303 2.3512476,18.3030303 2.32725528,18.2787879 C2.23128599,18.230303 2.1353167,18.1818182 2.01535509,18.1818182 C1.82341651,18.1818182 1.63147793,18.1818182 1.41554702,18.1090909 C1.36756238,18.0848485 1.31957774,18.0848485 1.27159309,18.0606061 C1.1756238,18.0121212 1.05566219,17.9878788 0.935700576,17.9878788 L0.839731286,17.9878788 C0.767754319,17.9878788 0.671785029,18.0121212 0.599808061,18.0121212 C0.359884837,18.0606061 0.239923225,18.1575758 0.215930902,18.4242424 C0.19193858,18.6666667 0.215930902,18.9818182 0.335892514,19.369697 C0.359884837,19.4666667 0.455854127,19.7575758 0.647792706,19.830303 C0.767754319,19.8787879 0.863723608,19.8545455 0.983685221,19.8060606 C1.05566219,19.7818182 1.10364683,19.7575758 1.15163148,19.7575758 C1.22360845,19.7575758 1.27159309,19.830303 1.31957774,19.8787879 C1.3915547,19.9757576 1.48752399,20.0727273 1.63147793,20.0484848 C1.70345489,20.0484848 1.77543186,20 1.82341651,19.9757576 C1.84740883,19.9515152 1.89539347,19.9272727 1.9193858,19.9272727 C1.99136276,19.9030303 2.03934741,19.9030303 2.11132438,19.9030303 C2.1353167,19.9030303 2.15930902,19.9030303 2.18330134,19.9030303 C2.32725528,19.9030303 2.42322457,19.8787879 2.51919386,19.830303 C2.54318618,19.8060606 2.59117083,19.8060606 2.61516315,19.7818182 C2.66314779,19.7575758 2.68714012,19.7575758 2.73512476,19.7333333 C2.87907869,19.6848485 2.99904031,19.6363636 3.14299424,19.5151515 C3.28694818,19.369697 3.45489443,19.3454545 3.67082534,19.3212121 L3.7428023,19.3212121 C4.19865643,19.2484848 4.67850288,19.3454545 5.13435701,19.4181818 C5.25431862,19.4424242 5.35028791,19.4666667 5.47024952,19.4666667 C5.78214971,19.5151515 6.04606526,19.4666667 6.33397313,19.3939394 C6.35796545,19.3939394 6.38195777,19.369697 6.42994242,19.369697 C6.52591171,19.3454545 6.71785029,19.2727273 6.78982726,19.3212121 C6.81381958,19.3454545 6.81381958,19.3939394 6.81381958,19.4424242 C6.81381958,19.4909091 6.8378119,19.5636364 6.86180422,19.6121212 C6.90978887,19.6848485 6.98176583,19.7333333 7.0537428,19.7818182 C7.07773512,19.8060606 7.10172745,19.8060606 7.10172745,19.830303 C7.17370441,19.8787879 7.17370441,19.9030303 7.22168906,19.9515152 L7.24568138,20 C7.38963532,20.2181818 7.60556622,20.3878788 7.82149712,20.5333333 C7.98944338,20.6545455 8.13339731,20.8 8.27735125,20.9454545 C8.32533589,20.9939394 8.34932821,21.0181818 8.39731286,21.0666667 L8.42130518,21.0909091 C8.56525912,21.2363636 8.73320537,21.4060606 8.70921305,21.5757576 C8.66122841,21.7454545 8.58925144,21.9393939 8.51727447,22.1090909 L8.39731286,22.3757576 C8.30134357,22.569697 8.20537428,22.7636364 8.10940499,22.9333333 C8.0134357,23.1272727 7.96545106,23.3212121 7.94145873,23.5151515 L7.91746641,23.6121212 C7.89347409,23.6848485 7.86948177,23.7575758 7.82149712,23.8545455 C7.77351248,23.9757576 7.72552783,24.0969697 7.72552783,24.2181818 C7.72552783,24.2424242 7.72552783,24.2909091 7.72552783,24.3151515 C7.72552783,24.3636364 7.72552783,24.3878788 7.72552783,24.4363636 C7.65355086,24.6545455 7.55758157,24.8727273 7.46161228,25.0909091 C7.41362764,25.2121212 7.34165067,25.3333333 7.29366603,25.4545455 L7.2696737,25.5272727 C7.22168906,25.6484848 7.14971209,25.7939394 7.12571977,25.9393939 C7.10172745,26.0121212 7.10172745,26.0848485 7.10172745,26.1575758 C7.10172745,26.230303 7.10172745,26.2787879 7.07773512,26.3272727 L7.07773512,26.3515152 C7.07773512,26.3515152 7.07773512,26.3757576 7.07773512,26.3757576 L7.07773512,26.3757576 C7.07773512,26.3757576 7.07773512,26.3757576 7.07773512,26.3757576 C7.0537428,26.3757576 7.02975048,26.3757576 7.00575816,26.4 C6.90978887,26.4484848 6.86180422,26.4727273 6.78982726,26.5454545 L6.74184261,26.5939394 C6.64587332,26.6909091 6.54990403,26.7636364 6.52591171,26.9090909 C6.50191939,26.9575758 6.50191939,27.030303 6.50191939,27.0787879 C6.50191939,27.1272727 6.50191939,27.1757576 6.47792706,27.2242424 C6.45393474,27.2969697 6.33397313,27.4909091 6.30998081,27.5151515 C6.30998081,27.5151515 6.30998081,27.5151515 6.30998081,27.4909091 C6.30998081,27.4666667 6.28598848,27.4424242 6.26199616,27.4181818 C6.21401152,27.3939394 6.19001919,27.369697 6.14203455,27.3454545 C6.11804223,27.3454545 6.0940499,27.3212121 6.0940499,27.3212121 C6.07005758,27.3212121 6.07005758,27.2969697 6.04606526,27.2969697 C5.97408829,27.2484848 5.90211132,27.2242424 5.83013436,27.2 C5.59021113,27.1757576 5.30230326,27.369697 5.18234165,27.5151515 C5.08637236,27.6121212 4.82245681,27.9272727 4.79846449,28.2424242 C4.79846449,28.2909091 4.79846449,28.3393939 4.82245681,28.3878788 C4.82245681,28.4363636 4.84644914,28.4848485 4.82245681,28.5333333 C4.82245681,28.6060606 4.77447217,28.7030303 4.72648752,28.8 C4.7024952,28.8484848 4.7024952,28.8727273 4.67850288,28.9212121 C4.65451056,28.969697 4.65451056,28.9939394 4.63051823,29.0424242 C4.60652591,29.1393939 4.55854127,29.2363636 4.51055662,29.3090909 C4.4865643,29.3575758 4.43857965,29.3818182 4.39059501,29.4060606 C4.36660269,29.4060606 4.34261036,29.430303 4.34261036,29.4545455 C4.12667946,29.6 4.00671785,29.8181818 3.88675624,29.9878788 C3.59884837,30.4484848 3.43090211,31.0545455 3.79078695,31.4181818 C3.91074856,31.5393939 4.0547025,31.5878788 4.17466411,31.5878788 C4.53454894,31.5878788 4.9184261,31.2484848 5.11036468,31.0787879 C5.25431862,30.9333333 5.37428023,30.7636364 5.49424184,30.6181818 C5.51823417,30.569697 5.56621881,30.5212121 5.59021113,30.4727273 C5.63819578,30.4242424 5.6621881,30.3515152 5.71017274,30.3030303 C5.75815739,30.2545455 5.80614203,30.1818182 5.83013436,30.1333333 C5.85412668,30.1090909 5.878119,30.0848485 5.90211132,30.0606061 C5.97408829,29.9878788 6.04606526,29.9151515 6.04606526,29.8181818 C6.04606526,29.769697 6.07005758,29.7212121 6.07005758,29.6969697 C6.07005758,29.6484848 6.07005758,29.6242424 6.0940499,29.6 C6.11804223,29.4787879 6.16602687,29.3575758 6.23800384,29.2606061 C6.33397313,29.1151515 6.57389635,29.0424242 6.74184261,28.9939394 C6.78982726,28.969697 6.8378119,28.969697 6.88579655,28.9454545 L6.98176583,28.9212121 C7.19769674,28.8484848 7.41362764,28.7757576 7.60556622,28.630303 L7.67754319,28.5818182 C7.86948177,28.4363636 8.06142035,28.2909091 8.2293666,28.1454545 C8.34932821,28.0484848 8.4452975,27.9030303 8.51727447,27.7818182 C8.56525912,27.7090909 8.61324376,27.6363636 8.66122841,27.5878788 C8.70921305,27.5393939 8.7571977,27.4666667 8.80518234,27.4181818 L8.87715931,27.3454545 C9.09309021,27.0787879 9.30902111,26.8121212 9.54894434,26.5454545 C9.62092131,26.4484848 9.69289827,26.3757576 9.76487524,26.2787879 C9.88483685,26.1575758 10.0047985,26.0121212 10.1247601,25.8666667 C10.2207294,25.7454545 10.2927063,25.6 10.3886756,25.4545455 C10.4126679,25.4060606 10.4606526,25.3333333 10.4846449,25.2848485 C10.5566219,25.1636364 10.6525912,25.0181818 10.7245681,24.8969697 C10.7965451,24.7757576 10.8925144,24.630303 10.9644914,24.5090909 C11.0364683,24.3878788 11.084453,24.2666667 11.1324376,24.1454545 C11.1804223,24.0484848 11.2284069,23.9515152 11.2763916,23.8545455 C11.4683301,23.5151515 11.684261,23.2242424 11.9001919,22.9333333 C12.0201536,22.7878788 12.1161228,22.6181818 12.2360845,22.4727273 C12.3560461,22.3030303 12.428023,22.1333333 12.5,21.9636364 C12.5479846,21.8424242 12.6199616,21.7212121 12.6919386,21.6 C12.7399232,21.5272727 12.7639155,21.4787879 12.8119002,21.4060606 C12.8838772,21.2606061 12.9798464,21.1151515 13.0518234,20.9939394 C13.0758157,20.969697 13.0998081,20.9454545 13.0998081,20.9212121 C13.1477927,20.8727273 13.1957774,20.8 13.2197697,20.7272727 C13.243762,20.6545455 13.243762,20.6060606 13.2197697,20.5333333 C13.2197697,20.4606061 13.2197697,20.4121212 13.243762,20.3636364 C13.2677543,20.3151515 13.315739,20.2666667 13.3637236,20.2424242 C13.4117083,20.2181818 13.4596929,20.169697 13.5076775,20.1212121 L13.5316699,20.0727273 C13.6516315,19.9030303 13.7715931,19.7575758 13.8435701,19.5636364 C13.8915547,19.4666667 13.9395393,19.3454545 13.9635317,19.2484848 C14.0355086,19.0787879 14.0834933,18.9333333 14.1554702,18.7636364 C14.2034549,18.6666667 14.2754319,18.569697 14.3474088,18.4727273 C14.4193858,18.3515152 14.5153551,18.230303 14.5873321,18.0848485 C14.659309,17.9393939 14.6833013,17.7939394 14.731286,17.6484848 C14.7552783,17.5515152 14.7792706,17.4545455 14.8272553,17.3575758 C14.8752399,17.2363636 14.9232246,17.0909091 14.9712092,16.969697 C15.0191939,16.8242424 15.0911708,16.6787879 15.1391555,16.5333333 L15.2111324,16.2909091 C15.331094,15.9757576 15.4270633,15.6606061 15.5230326,15.3454545 C15.6669866,14.8848485 15.8349328,14.4727273 16.0028791,14.0363636 L16.0268714,13.9636364 C16.21881,13.5030303 16.5307102,13.1636364 16.9385797,12.7757576 C16.9865643,12.7272727 17.0345489,12.6545455 17.0825336,12.6060606 C17.2024952,12.4848485 17.2984645,12.3393939 17.4664107,12.2909091 C17.56238,12.2666667 17.634357,12.1939394 17.706334,12.1212121 C17.7783109,12.0484848 17.8262956,12 17.9222649,11.9757576 C18.2101727,11.9030303 18.378119,11.7575758 18.4980806,11.5151515 C18.378119,11.5636364 18.378119,11.4424242 18.3541267,11.3212121 Z" id="Path" fill="url(#linearGradient-2)"></path>
                <path d="M67.9462572,27.6606061 L67.2744722,31.4424242 C67.2264875,31.6848485 67.0105566,31.8787879 66.7466411,31.8787879 C66.4827255,31.8787879 66.3387716,31.6606061 66.3867562,31.4424242 L67.8262956,23.2969697 C67.8742802,23.0545455 68.0902111,22.8606061 68.3541267,22.8606061 C68.6180422,22.8606061 68.7619962,23.0787879 68.7140115,23.2969697 L68.0902111,26.8606061 L72.6007678,26.8606061 L73.2245681,23.2969697 C73.2725528,23.0545455 73.4884837,22.8606061 73.7523992,22.8606061 C74.0163148,22.8606061 74.1602687,23.0787879 74.1122841,23.2969697 L72.6727447,31.4424242 C72.6247601,31.6848485 72.4088292,31.8787879 72.1449136,31.8787879 C71.8809981,31.8787879 71.7370441,31.6606061 71.7850288,31.4424242 L72.4568138,27.6606061 L67.9462572,27.6606061 Z" id="Path" fill="#EA214C"></path>
                <path d="M76.2955854,29.1636364 L74.928023,31.5636364 C74.8320537,31.7333333 74.7120921,31.8787879 74.4961612,31.8787879 C74.256238,31.8787879 74.0642994,31.6848485 74.0642994,31.4424242 C74.0642994,31.3454545 74.1122841,31.2484848 74.1362764,31.1757576 L78.7667946,23.1515152 C78.8627639,23.0060606 78.9827255,22.8606061 79.2226488,22.8606061 C79.4385797,22.8606061 79.5825336,23.0060606 79.6065259,23.1515152 L81.3579655,31.2484848 C81.3819578,31.3212121 81.3819578,31.3939394 81.3819578,31.4424242 C81.3819578,31.7090909 81.2140115,31.9030303 80.9261036,31.9030303 C80.7101727,31.9030303 80.5422265,31.7818182 80.5182342,31.6121212 L79.9664107,29.1878788 L76.2955854,29.1878788 L76.2955854,29.1636364 Z M78.9587332,24.3393939 L76.7274472,28.3636364 L79.7984645,28.3636364 L78.9587332,24.3393939 Z" id="Shape" fill="#EA214C"></path>
                <path d="M90.2591171,23.2727273 L88.8195777,31.4424242 C88.7715931,31.6848485 88.5556622,31.8787879 88.2917466,31.8787879 C88.1477927,31.8787879 88.0278311,31.8060606 87.9558541,31.6848485 L84.6449136,24.4848485 L83.4213052,31.4181818 C83.3733205,31.6606061 83.181382,31.8545455 82.9174664,31.8545455 C82.6775432,31.8545455 82.5335893,31.6606061 82.5575816,31.4181818 L83.9971209,23.2484848 C84.0451056,23.0060606 84.2130518,22.8121212 84.4769674,22.8121212 C84.668906,22.8121212 84.7648752,22.9090909 84.8368522,23.030303 L88.1957774,30.1818182 L89.3714012,23.2484848 C89.4193858,23.0060606 89.6113244,22.8121212 89.8752399,22.8121212 C90.1391555,22.8363636 90.2831094,23.030303 90.2591171,23.2727273 Z" id="Path" fill="#EA214C"></path>
                <path d="M94.5297505,22.9333333 C96.6410749,22.9333333 97.9126679,23.8545455 97.9126679,26.230303 C97.9126679,29.8181818 96.0652591,31.7575758 92.9942418,31.7575758 L91.1708253,31.7575758 C90.9309021,31.7575758 90.7629559,31.5636364 90.8109405,31.3212121 L92.2024952,23.3939394 C92.2504798,23.1515152 92.4664107,22.9575758 92.7303263,22.9575758 L94.5297505,22.9575758 L94.5297505,22.9333333 Z M91.7466411,30.9575758 L93.1381958,30.9575758 C95.537428,30.9575758 97.0009597,29.4545455 97.0009597,26.4 C97.0009597,24.4606061 96.0172745,23.7575758 94.4097889,23.7575758 L93.0182342,23.7575758 L91.7466411,30.9575758 Z" id="Shape" fill="#EA214C"></path>
                <path d="M99.0642994,31.7818182 C98.8243762,31.7818182 98.6564299,31.5878788 98.7044146,31.3454545 L100.095969,23.4181818 C100.143954,23.1757576 100.383877,22.9818182 100.6238,22.9818182 L102.831094,22.9818182 C104.414587,22.9818182 105.110365,23.7333333 105.110365,24.8727273 C105.110365,26.0363636 104.366603,26.8606061 103.502879,27.1030303 C104.270633,27.2969697 104.822457,27.8787879 104.822457,28.8969697 C104.822457,30.569697 103.790787,31.830303 101.679463,31.830303 L99.0642994,31.830303 L99.0642994,31.7818182 Z M99.6401152,30.9575758 L101.775432,30.9575758 C103.166987,30.9575758 103.886756,30.1333333 103.886756,28.9454545 C103.886756,28.0727273 103.334933,27.5636364 102.37524,27.5636364 L100.239923,27.5636364 L99.6401152,30.9575758 Z M100.359885,26.7878788 L102.111324,26.7878788 C103.334933,26.7878788 104.174664,26.0363636 104.174664,24.969697 C104.174664,24.2181818 103.694818,23.7333333 102.639155,23.7333333 L100.887716,23.7333333 L100.359885,26.7878788 Z" id="Shape" fill="#EA214C"></path>
                <path d="M107.341651,29.1636364 L105.974088,31.5636364 C105.878119,31.7333333 105.758157,31.8787879 105.542226,31.8787879 C105.302303,31.8787879 105.110365,31.6848485 105.110365,31.4424242 C105.110365,31.3454545 105.158349,31.2484848 105.182342,31.1757576 L109.81286,23.1515152 C109.908829,23.0060606 110.028791,22.8606061 110.268714,22.8606061 C110.484645,22.8606061 110.628599,23.0060606 110.652591,23.1515152 L112.404031,31.2484848 C112.428023,31.3212121 112.428023,31.3939394 112.428023,31.4424242 C112.428023,31.7090909 112.260077,31.9030303 111.972169,31.9030303 C111.756238,31.9030303 111.588292,31.7818182 111.564299,31.6121212 L111.012476,29.1878788 L107.341651,29.1878788 L107.341651,29.1636364 Z M110.004798,24.3393939 L107.773512,28.3636364 L110.84453,28.3636364 L110.004798,24.3393939 Z" id="Shape" fill="#EA214C"></path>
                <path d="M118.330134,30.9333333 C118.546065,30.9333333 118.690019,31.0787879 118.690019,31.2969697 C118.690019,31.5636364 118.450096,31.7818182 118.18618,31.7818182 L114.179463,31.7818182 C113.939539,31.7818182 113.771593,31.5878788 113.819578,31.3454545 L115.211132,23.2969697 C115.259117,23.0545455 115.475048,22.8606061 115.738964,22.8606061 C116.002879,22.8606061 116.146833,23.0545455 116.098848,23.2969697 L114.755278,30.9333333 L118.330134,30.9333333 Z" id="Path" fill="#EA214C"></path>
                <path d="M124.592131,30.9333333 C124.808061,30.9333333 124.952015,31.0787879 124.952015,31.2969697 C124.952015,31.5636364 124.712092,31.7818182 124.448177,31.7818182 L120.441459,31.7818182 C120.201536,31.7818182 120.033589,31.5878788 120.081574,31.3454545 L121.473129,23.2969697 C121.521113,23.0545455 121.737044,22.8606061 122.00096,22.8606061 C122.264875,22.8606061 122.408829,23.0545455 122.360845,23.2969697 L121.017274,30.9333333 L124.592131,30.9333333 Z" id="Path" fill="#EA214C"></path>
                <path d="M29.2466411,30.4242424 L26.2236084,30.4242424 L27.4232246,23.5636364 C27.4472169,23.369697 27.3992322,23.1757576 27.2792706,23.030303 C27.159309,22.8848485 26.9913628,22.8121212 26.7994242,22.8121212 C26.415547,22.8121212 26.1036468,23.1030303 26.0316699,23.4666667 L24.7120921,31.030303 C24.6880998,31.2242424 24.7360845,31.4181818 24.8560461,31.5636364 C24.9760077,31.7090909 25.1439539,31.7818182 25.3358925,31.7818182 L29.0786948,31.7818182 C29.4865643,31.7818182 29.8224568,31.4424242 29.8224568,31.0545455 C29.8464491,30.7151515 29.5825336,30.4242424 29.2466411,30.4242424 Z" id="Path" fill="#EA214C"></path>
                <path d="M37.0441459,24.2424242 C37.428023,24.2424242 37.7639155,23.9272727 37.7639155,23.5393939 C37.7639155,23.2 37.5,22.9333333 37.1641075,22.9333333 L33.2533589,22.9333333 C32.8934741,22.9333333 32.5575816,23.2242424 32.4856046,23.5878788 L31.1900192,31.0545455 C31.1660269,31.2484848 31.2140115,31.4424242 31.3339731,31.5878788 C31.4539347,31.7333333 31.621881,31.8060606 31.8138196,31.8060606 L35.8685221,31.8060606 C36.2523992,31.8060606 36.5882917,31.4909091 36.5882917,31.1030303 C36.5882917,30.7636364 36.3243762,30.4969697 35.9884837,30.4969697 L32.6775432,30.4969697 L33.109405,28.0242424 L35.5566219,28.0242424 C35.940499,28.0242424 36.2763916,27.6848485 36.2763916,27.3212121 C36.2763916,26.9818182 36.012476,26.7151515 35.6765835,26.7151515 L33.3493282,26.7151515 L33.7571977,24.2909091 L37.0441459,24.2909091 L37.0441459,24.2424242 Z" id="Path" fill="#EA214C"></path>
                <path d="M43.3541267,23.3212121 C43.2821497,23.030303 43.0422265,22.8363636 42.7303263,22.8363636 C42.4424184,22.8363636 42.2264875,22.9818182 42.0585413,23.2484848 L37.7399232,30.7878788 C37.6679463,30.9090909 37.6199616,31.0545455 37.6199616,31.1757576 C37.6199616,31.5636364 37.9318618,31.8787879 38.315739,31.8787879 C38.6036468,31.8787879 38.8195777,31.7333333 38.9635317,31.4424242 L40.1871401,29.3333333 L43.1861804,29.3333333 L43.6420345,31.3939394 C43.7140115,31.6848485 43.9779271,31.9030303 44.2898273,31.9030303 C44.6976967,31.9030303 45.0095969,31.6121212 45.0095969,31.2 C45.0095969,31.1757576 45.0095969,31.1272727 44.9856046,30.9575758 L43.3541267,23.3212121 Z M42.9462572,28 L40.8589251,28 L42.3704415,25.2848485 L42.9462572,28 Z" id="Shape" fill="#EA214C"></path>
                <path d="M50.6477927,22.9333333 L48.2245681,22.9333333 C47.8646833,22.9333333 47.5287908,23.2242424 47.4568138,23.5878788 L46.1372361,31.1515152 C46.1132438,31.3454545 46.1612284,31.5393939 46.28119,31.6848485 C46.4011516,31.830303 46.5690979,31.9030303 46.7610365,31.9030303 C47.1449136,31.9030303 47.4568138,31.6121212 47.5287908,31.2484848 L48.0566219,28.2181818 L48.9683301,28.2181818 L50.743762,31.5636364 C50.8877159,31.8060606 51.1516315,31.9030303 51.3435701,31.9030303 C51.7274472,31.9030303 52.0393474,31.5878788 52.0393474,31.2 C52.0393474,31.0787879 51.9913628,30.9333333 51.9433781,30.8363636 L50.4558541,28.169697 C51.8714012,27.9515152 52.903071,26.7393939 52.903071,25.2121212 C52.8790787,23.8545455 51.9673704,22.9333333 50.6477927,22.9333333 Z M49.9760077,26.8848485 L48.2725528,26.8848485 L48.7284069,24.2666667 L50.5038388,24.2666667 C51.1036468,24.2666667 51.4635317,24.6787879 51.4635317,25.3090909 C51.4635317,26.0848485 50.9596929,26.8848485 49.9760077,26.8848485 Z" id="Shape" fill="#EA214C"></path>
                <path d="M60.8445298,23.0545455 C60.7245681,22.9090909 60.5566219,22.8363636 60.3886756,22.8363636 C60.0287908,22.8363636 59.6928983,23.1030303 59.6449136,23.4666667 L58.6852207,29.1151515 L55.9021113,23.1757576 C55.7821497,22.9575758 55.5902111,22.8363636 55.3262956,22.8363636 C54.9664107,22.8363636 54.6785029,23.1030303 54.6065259,23.4666667 L53.2629559,31.1515152 C53.2389635,31.3454545 53.2869482,31.5393939 53.3829175,31.6606061 C53.5028791,31.8060606 53.6708253,31.8787879 53.8387716,31.8787879 C54.1986564,31.8787879 54.5345489,31.6121212 54.5825336,31.2484848 L55.5662188,25.6 L58.3013436,31.5636364 L58.3013436,31.5878788 C58.4213052,31.7818182 58.6132438,31.9030303 58.853167,31.9030303 C59.2130518,31.9030303 59.5489443,31.6121212 59.6209213,31.2484848 L60.9644914,23.5878788 L60.9644914,23.5878788 C61.012476,23.369697 60.9644914,23.2 60.8445298,23.0545455 Z" id="Path" fill="#EA214C"></path>
                <g id="Group" opacity="0.8" transform="translate(10.076775, 6.545455)" fill="#FFFFFF">
                    <path d="M8.39731286,4.75151515 C8.34932821,4.31515152 8.27735125,3.87878788 8.03742802,3.53939394 C8.0134357,3.49090909 7.96545106,3.46666667 7.94145873,3.41818182 C7.86948177,3.34545455 7.82149712,3.27272727 7.7975048,3.2 C7.74952015,3.05454545 7.74952015,2.98181818 7.91746641,2.81212121 C8.03742802,2.69090909 8.20537428,2.4969697 7.94145873,2.23030303 C7.86948177,2.15757576 7.86948177,2.15757576 7.84548944,2.06060606 L7.84548944,2.01212121 C7.84548944,1.89090909 7.7975048,1.74545455 7.67754319,1.64848485 C7.65355086,1.62424242 7.62955854,1.6 7.60556622,1.6 C7.60556622,1.6 7.60556622,1.6 7.60556622,1.6 C7.60556622,1.55151515 7.62955854,1.47878788 7.60556622,1.40606061 C7.55758157,1.28484848 7.46161228,1.16363636 7.34165067,1.11515152 C7.29366603,1.09090909 7.24568138,1.09090909 7.14971209,1.09090909 C7.10172745,1.09090909 7.02975048,1.09090909 6.98176583,1.09090909 C6.95777351,1.09090909 6.93378119,1.09090909 6.90978887,1.09090909 C6.81381958,1.01818182 6.71785029,0.96969697 6.59788868,0.96969697 C6.57389635,0.96969697 6.57389635,0.96969697 6.54990403,0.96969697 C6.33397313,0.993939394 6.19001919,1.13939394 6.21401152,1.35757576 C6.21401152,1.38181818 6.21401152,1.43030303 6.23800384,1.45454545 C6.11804223,1.47878788 6.02207294,1.55151515 5.95009597,1.67272727 C5.95009597,1.64848485 5.92610365,1.6 5.92610365,1.57575758 L5.92610365,1.55151515 C5.92610365,1.52727273 5.92610365,1.5030303 5.90211132,1.47878788 C5.85412668,1.23636364 5.73416507,0.96969697 5.54222649,0.727272727 C5.25431862,0.387878788 4.82245681,0.16969697 4.36660269,0.096969697 C4.39059501,0.145454545 4.41458733,0.193939394 4.43857965,0.218181818 C4.84644914,0.290909091 5.20633397,0.509090909 5.47024952,0.8 C5.63819578,1.01818182 5.75815739,1.26060606 5.80614203,1.47878788 C5.80614203,1.5030303 5.83013436,1.55151515 5.83013436,1.57575758 C5.85412668,1.67272727 5.878119,1.79393939 5.878119,1.89090909 C5.92610365,1.93939394 5.99808061,1.96363636 6.07005758,2.01212121 C6.07005758,1.98787879 6.07005758,1.96363636 6.07005758,1.96363636 C6.07005758,1.93939394 6.07005758,1.91515152 6.07005758,1.89090909 C6.07005758,1.84242424 6.04606526,1.79393939 6.07005758,1.74545455 C6.0940499,1.64848485 6.19001919,1.57575758 6.28598848,1.57575758 C6.30998081,1.57575758 6.33397313,1.57575758 6.35796545,1.57575758 C6.35796545,1.57575758 6.35796545,1.57575758 6.35796545,1.57575758 C6.4059501,1.57575758 6.35796545,1.43030303 6.35796545,1.33333333 C6.35796545,1.16363636 6.42994242,1.09090909 6.59788868,1.06666667 C6.621881,1.06666667 6.621881,1.06666667 6.64587332,1.06666667 C6.74184261,1.06666667 6.8378119,1.11515152 6.90978887,1.18787879 C6.90978887,1.18787879 6.93378119,1.18787879 6.93378119,1.18787879 C6.98176583,1.18787879 7.10172745,1.16363636 7.19769674,1.16363636 C7.24568138,1.16363636 7.29366603,1.16363636 7.34165067,1.18787879 C7.43761996,1.23636364 7.48560461,1.30909091 7.53358925,1.40606061 C7.55758157,1.45454545 7.53358925,1.5030303 7.53358925,1.55151515 C7.53358925,1.57575758 7.55758157,1.67272727 7.5815739,1.67272727 C7.60556622,1.67272727 7.62955854,1.6969697 7.65355086,1.6969697 C7.74952015,1.76969697 7.77351248,1.89090909 7.77351248,1.98787879 L7.77351248,2.03636364 C7.77351248,2.15757576 7.77351248,2.15757576 7.89347409,2.27878788 C8.06142035,2.44848485 7.98944338,2.54545455 7.86948177,2.69090909 C7.70153551,2.86060606 7.65355086,3.00606061 7.72552783,3.2 C7.77351248,3.2969697 7.82149712,3.36969697 7.89347409,3.46666667 C7.91746641,3.51515152 7.94145873,3.53939394 7.98944338,3.58787879 C8.20537428,3.9030303 8.27735125,4.33939394 8.32533589,4.75151515 C8.34932821,4.87272727 8.34932821,4.99393939 8.27735125,5.11515152 C8.15738964,5.35757576 7.98944338,5.5030303 7.70153551,5.57575758 C7.60556622,5.6 7.55758157,5.64848485 7.48560461,5.72121212 C7.43761996,5.76969697 7.36564299,5.84242424 7.24568138,5.89090909 C7.10172745,5.93939394 6.98176583,6.06060606 6.86180422,6.20606061 C6.81381958,6.25454545 6.76583493,6.32727273 6.71785029,6.37575758 C6.30998081,6.76363636 5.99808061,7.1030303 5.80614203,7.56363636 L5.78214971,7.63636364 C5.61420345,8.07272727 5.4462572,8.48484848 5.30230326,8.94545455 C5.20633397,9.26060606 5.08637236,9.57575758 4.99040307,9.89090909 L4.9184261,10.1333333 C4.87044146,10.2787879 4.79846449,10.4242424 4.75047985,10.569697 C4.7024952,10.6909091 4.65451056,10.8363636 4.60652591,10.9575758 C4.58253359,11.0545455 4.53454894,11.1515152 4.51055662,11.2484848 C4.46257198,11.3939394 4.43857965,11.5393939 4.36660269,11.6848485 C4.29462572,11.830303 4.22264875,11.9515152 4.12667946,12.0727273 C4.0547025,12.169697 4.00671785,12.2666667 3.93474088,12.3636364 C3.86276392,12.5090909 3.79078695,12.6787879 3.7428023,12.8484848 C3.69481766,12.9454545 3.67082534,13.0666667 3.62284069,13.1636364 C3.55086372,13.3333333 3.43090211,13.5030303 3.3109405,13.6727273 L3.28694818,13.7212121 C3.23896353,13.7939394 3.19097889,13.8181818 3.14299424,13.8424242 C3.11900192,13.8666667 3.0950096,13.8909091 3.07101727,13.9151515 C3.14299424,13.9151515 3.21497121,13.9151515 3.28694818,13.9151515 C3.33493282,13.8909091 3.35892514,13.8424242 3.40690979,13.7939394 L3.43090211,13.7454545 C3.55086372,13.5757576 3.67082534,13.4060606 3.7428023,13.2121212 C3.79078695,13.1151515 3.83877159,12.9939394 3.86276392,12.8969697 C3.91074856,12.7272727 3.98272553,12.5818182 4.0547025,12.4363636 C4.10268714,12.3393939 4.17466411,12.2424242 4.22264875,12.1454545 C4.31861804,12.0242424 4.39059501,11.8787879 4.46257198,11.7333333 C4.53454894,11.5878788 4.58253359,11.4181818 4.60652591,11.2727273 C4.63051823,11.1757576 4.65451056,11.0787879 4.7024952,10.9818182 C4.75047985,10.8606061 4.79846449,10.7393939 4.84644914,10.5939394 C4.89443378,10.4484848 4.96641075,10.3030303 5.01439539,10.1575758 L5.08637236,9.91515152 C5.20633397,9.6 5.30230326,9.28484848 5.39827255,8.96969697 C5.54222649,8.50909091 5.68618042,8.0969697 5.878119,7.68484848 L5.90211132,7.61212121 C6.07005758,7.17575758 6.4059501,6.83636364 6.78982726,6.47272727 C6.8378119,6.42424242 6.90978887,6.35151515 6.95777351,6.3030303 C7.07773512,6.18181818 7.14971209,6.06060606 7.29366603,6.03636364 C7.41362764,5.98787879 7.50959693,5.91515152 7.55758157,5.84242424 C7.62955854,5.79393939 7.65355086,5.74545455 7.70153551,5.74545455 C8.0134357,5.67272727 8.2293666,5.5030303 8.34932821,5.21212121 C8.42130518,5.04242424 8.42130518,4.8969697 8.39731286,4.75151515 Z" id="Path"></path>
                    <path d="M2.73512476,14.6424242 C2.66314779,14.7636364 2.59117083,14.8848485 2.51919386,15.0060606 C2.47120921,15.0787879 2.44721689,15.1272727 2.39923225,15.2 C2.32725528,15.3212121 2.27927063,15.4424242 2.20729367,15.5636364 C2.1353167,15.7333333 2.03934741,15.9030303 1.94337812,16.0727273 C1.82341651,16.2181818 1.72744722,16.3878788 1.6074856,16.5333333 C1.3915547,16.8242424 1.1756238,17.1151515 0.983685221,17.4545455 C0.935700576,17.5515152 0.887715931,17.6484848 0.839731286,17.7454545 C0.791746641,17.8666667 0.719769674,17.9878788 0.671785029,18.1090909 C0.599808061,18.230303 0.503838772,18.3757576 0.431861804,18.4969697 C0.359884837,18.6181818 0.263915547,18.7636364 0.19193858,18.8848485 C0.167946257,18.9333333 0.119961612,19.0060606 0.0959692898,19.0545455 C0.0719769674,19.0787879 0.0479846449,19.1272727 0.0479846449,19.1515152 C0.0719769674,19.1757576 0.119961612,19.2 0.143953935,19.2242424 C0.167946257,19.2 0.19193858,19.1515152 0.19193858,19.1272727 C0.215930902,19.0545455 0.263915547,19.0060606 0.287907869,18.9575758 C0.359884837,18.8363636 0.455854127,18.6909091 0.527831094,18.569697 C0.599808061,18.4484848 0.695777351,18.3030303 0.767754319,18.1818182 C0.839731286,18.0606061 0.887715931,17.9393939 0.959692898,17.8181818 C1.00767754,17.7212121 1.05566219,17.6242424 1.10364683,17.5272727 C1.27159309,17.2121212 1.51151631,16.8969697 1.70345489,16.630303 C1.82341651,16.4848485 1.9193858,16.3151515 2.03934741,16.169697 C2.15930902,16 2.23128599,15.830303 2.32725528,15.6606061 C2.37523992,15.5393939 2.44721689,15.4181818 2.51919386,15.2969697 C2.5671785,15.2242424 2.59117083,15.1757576 2.63915547,15.1030303 C2.71113244,14.9818182 2.7831094,14.8363636 2.87907869,14.6909091 C2.90307102,14.6666667 2.90307102,14.6424242 2.92706334,14.6181818 C2.95105566,14.5939394 2.95105566,14.5939394 2.97504798,14.569697 C2.87907869,14.569697 2.80710173,14.5939394 2.73512476,14.6424242 C2.73512476,14.6424242 2.73512476,14.6424242 2.73512476,14.6424242 Z" id="Path"></path>
                </g>
            </g>
        </g>
    </g>
</svg>